# xmcd
# Track frame offsets:
# 182
# 18737
# 33935
# 48055
# 59217
# 70800
# 88942
# 100642
# 124972
# 139252
# 153610
# 166375
# 181807
# 202880
# 217842
# 234747
#
# Disc length: 3333 seconds
# Revision: 0
# Processed by: cddbd v1.4PL0 Copyright (c) Steve Scherf et al.
# Submitted via: VisiTrax 2.9.3.171 - For more info visit www.synapsa.com
#
DISCID=e10d0310
DTITLE=Various Artist - Ramblin' Fever
DYEAR=1995
DGENRE=Country
TTITLE0=Little Texas - God Blessed Texas
TTITLE1=Confederate Railroad - Queen Of Memphis
TTITLE2=Sweethearts of the Rodeo - Midnight Girl/Sunset Town
TTITLE3=Eddy Raven - I Got Mexico
TTITLE4=Willie Nelson - On The Road Again
TTITLE5=Pam Tillis - Maybe It Was Memphis
TTITLE6=Steve Earl - Guitar Town
TTITLE7=Alabama - Dixieland Delight
TTITLE8=Suzy Bogguss - Drive South
TTITLE9=Ricky Scaggs - Highway 40 Blues
TTITLE10=Emmylou Harris - I'm Movin' On
TTITLE11=The Bellamy Brothers - Redneck Girl
TTITLE12=Leroy Parnell - On The Road
TTITLE13=Lee Greenwood - Dixie Road
TTITLE14=Ronnie Milsap - Smokey Mountain Rain
TTITLE15=Southern Pacific - Reno Bound
EXTD=
EXTT0=
EXTT1=
EXTT2=
EXTT3=
EXTT4=
EXTT5=
EXTT6=
EXTT7=
EXTT8=
EXTT9=
EXTT10=
EXTT11=
EXTT12=
EXTT13=
EXTT14=
EXTT15=
PLAYORDER=
